PathFileType	4	(x/y/z)	S05_PSF_T02
DataRate	CameraRate	NumFrames	NumMarkers	Units	OrigDataRate	OrigDataStartFrame	OrigNumFrames
240	240	7	50	mm	240	332	442
Frame#	Time	Sternum			R.Acromium			L.Acromium			Top.Head			R.ASIS			L.ASIS			R.PSIS			L.PSIS			R.Great.Tro			L.Great.Tro			R.Iliac.Crest			L.Iliac.Crest			V.Sacral			R.Thigh.Upper.Post			R.Thigh.Lower.Ant			R.Thigh.Lower.Post			R.Thigh.Upper.Ant			R.Knee.Lat			R.Knee.Med			R.Shank.Upper.Post			R.Shank.Lower.Ant			R.Shank.Lower.Post			R.Shank.Upper.Ant			R.Ankle.Lat			R.Ankle.Med			R.Heel.Upper			R.Heel.Med			R.Heel.Lat			R.Toe.Lat			R.Toe.Med			R.Toe.Tip			L.Thigh.Upper.Post			L.Thigh.Lower.Ant			L.Thigh.Lower.Post			L.Thigh.Upper.Ant			L.Knee.Lat			L.Shank.Upper.Post			L.Shank.Lower.Ant			L.Shank.Lower.Post			L.Shank.Upper.Ant			L.Ankle.Lat			L.Ankle.Med			L.Heel.Upper			L.Heel.Med			L.Heel.Lat			L.Toe.Lat			L.Toe.Med			L.Toe.Tip			Cervical.Spine			Back			
		X1	Y1	Z1	X2	Y2	Z2	X3	Y3	Z3	X4	Y4	Z4	X5	Y5	Z5	X6	Y6	Z6	X7	Y7	Z7	X8	Y8	Z8	X9	Y9	Z9	X10	Y10	Z10	X11	Y11	Z11	X12	Y12	Z12	X13	Y13	Z13	X14	Y14	Z14	X15	Y15	Z15	X16	Y16	Z16	X17	Y17	Z17	X18	Y18	Z18	X19	Y19	Z19	X20	Y20	Z20	X21	Y21	Z21	X22	Y22	Z22	X23	Y23	Z23	X24	Y24	Z24	X25	Y25	Z25	X26	Y26	Z26	X27	Y27	Z27	X28	Y28	Z28	X29	Y29	Z29	X30	Y30	Z30	X31	Y31	Z31	X32	Y32	Z32	X33	Y33	Z33	X34	Y34	Z34	X35	Y35	Z35	X36	Y36	Z36	X37	Y37	Z37	X38	Y38	Z38	X39	Y39	Z39	X40	Y40	Z40	X41	Y41	Z41	X42	Y42	Z42	X43	Y43	Z43	X44	Y44	Z44	X45	Y45	Z45	X46	Y46	Z46	X47	Y47	Z47	X48	Y48	Z48	X49	Y49	Z49	X50	Y50	Z50	

332	1.3792	284.81	1253.3	268.12	197.72	1517.7	414.89	179.56	1523.4	85.389	191.13	1824.9	227.2	205.51	999.63	407.91	234.68	1011.5	158.84	15.588	1021.5	298.47	26.379	1024.3	207.21	114.73	918.1	459.73	162.2	930.69	73.866	115.18	1087.1	435.36	143.81	1084.5	99.223	5.925	988.1	263.03	172.11	699.71	475.8	233.43	626.45	439.37	165.93	610.11	461.61	236.3	715.27	453.86	151.81	515.32	450.91	173.04	490.1	321.97	-67.342	414.4	426.08	-78.988	323.91	424.08	-125.17	366.72	405.76	-20.293	372.04	443.79	-172.55	267.28	402.15	-139.41	279.78	318.23	-248.97	293.32	338.11	-261.7	268.28	303.86	-270.61	263.95	368.54	-184.6	123.28	417.48	-134.41	121.14	306.23	-83.45	90.426	356.97	209.47	695.77	87.168	299.53	639.26	117.21	235.45	606.06	106.98	281.54	726.38	96.978	267.8	521.47	116.98	215.81	317.22	119.81	286.16	263.29	127.43	217.6	246.06	139.71	280.26	332.8	113.08	254.81	109.4	152.07	291.21	131.51	236.4	202.4	65.364	210.42	217.39	42.656	243.31	203.51	36.682	183.25	382.04	40.316	119.51	411.09	59.375	235.11	469.62	72.093	177.77	140.75	1562.7	256.44	24.344	1290.4	265.77
333	1.3833	289.79	1253.8	267.78	202.94	1518.3	414.48	185.06	1524.1	84.935	196.6	1825.6	226.7	210.6	1000.6	407.2	239.17	1012.1	158.06	20.463	1022.1	298.51	31.015	1025	207.23	120.74	918.84	459.61	166.2	931.21	73.533	120.27	1087.9	434.97	148.29	1085.2	98.795	10.783	988.71	263.09	180.92	700.9	475.53	242.8	628.41	438.54	175.71	611.23	461.38	244.63	717.26	452.93	162.71	516.34	450.61	183.52	491.48	321.55	-56.448	415.55	425.69	-68.004	325.05	423.58	-114.28	367.85	405.41	-9.3382	373.2	443.27	-161.51	268.46	401.58	-128.41	281.16	317.51	-238.45	293.95	337.59	-251.06	268.71	303.46	-259.75	264.48	368.17	-172.34	124.78	417.23	-122.55	122.69	305.82	-71.147	92.437	356.46	212.56	696.09	86.924	302.43	639.17	116.79	238.17	606.25	106.75	284.81	726.36	96.535	270.01	521.48	116.74	216.93	317.51	119.96	287.02	263.22	127.34	218.4	246.36	139.87	281.45	332.73	112.98	255.02	109.52	152.14	291.52	131.52	236.45	202.35	65.461	210.47	217.42	42.679	243.33	203.54	36.772	183.26	382.09	40.242	119.51	411.17	59.178	235.16	469.72	71.78	177.83	146.04	1563.4	255.99	29.345	1291.3	265.08
334	1.3875	294.75	1254.3	267.42	208.13	1518.9	414.08	190.53	1524.8	84.493	202.07	1826.3	226.22	215.7	1001.5	406.49	243.65	1012.8	157.29	25.329	1022.8	298.58	35.641	1025.7	207.27	126.73	919.61	459.49	170.17	931.74	73.222	125.38	1088.8	434.59	152.74	1085.8	98.382	15.628	989.36	263.18	189.67	702.15	475.24	252.09	630.43	437.69	185.43	612.43	461.12	252.88	719.32	452.02	173.53	517.43	450.27	193.93	492.95	321.09	-45.531	416.52	425.25	-56.898	326.01	423.05	-103.3	368.72	405	1.6813	374.24	442.7	-150.28	269.35	400.96	-117.21	282.25	316.77	-227.73	294.18	336.98	-240.17	268.71	302.99	-248.67	264.64	367.74	-159.77	126.03	417.02	-110.34	123.95	305.46	-58.497	94.23	356.04	215.59	696.42	86.69	305.25	639.07	116.37	240.82	606.45	106.54	288.01	726.33	96.094	272.14	521.5	116.5	218.02	317.79	120.1	287.84	263.15	127.24	219.18	246.65	140.01	282.61	332.66	112.87	255.22	109.64	152.21	291.83	131.54	236.49	202.29	65.561	210.51	217.44	42.704	243.35	203.57	36.861	183.26	382.14	40.166	119.51	411.25	58.997	235.2	469.82	71.485	177.88	151.32	1564.2	255.55	34.329	1292.1	264.41
335	1.3917	299.7	1254.8	267.06	213.29	1519.6	413.69	195.97	1525.5	84.064	207.53	1827.1	225.78	220.8	1002.5	405.77	248.11	1013.5	156.53	30.187	1023.5	298.67	40.26	1026.4	207.34	132.68	920.42	459.39	174.12	932.26	72.931	130.52	1089.6	434.22	157.16	1086.5	97.984	20.461	990.03	263.31	198.34	703.47	474.94	261.31	632.53	436.85	195.08	613.71	460.84	261.04	721.44	451.12	184.29	518.59	449.89	204.29	494.48	320.6	-34.597	417.31	424.74	-45.676	326.77	422.48	-92.246	369.35	404.53	12.76	375.16	442.09	-138.86	269.95	400.3	-105.83	283.04	316	-216.8	294.04	336.28	-229.05	268.3	302.44	-237.38	264.42	367.22	-146.91	127.01	416.87	-97.808	124.89	305.18	-45.519	95.797	355.72	218.55	696.75	86.467	308.01	638.96	115.96	243.41	606.64	106.33	291.15	726.29	95.653	274.18	521.51	116.27	219.06	318.06	120.2	288.64	263.09	127.14	219.93	246.94	140.13	283.73	332.6	112.75	255.4	109.75	152.27	292.13	131.56	236.52	202.22	65.664	210.56	217.46	42.733	243.36	203.6	36.949	183.27	382.18	40.085	119.5	411.32	58.831	235.23	469.91	71.207	177.91	156.57	1564.9	255.12	39.299	1293	263.76
336	1.3958	304.63	1255.4	266.69	218.44	1520.2	413.3	201.36	1526.2	83.648	212.99	1827.8	225.36	225.92	1003.5	405.06	252.56	1014.2	155.78	35.036	1024.2	298.79	44.871	1027.2	207.43	138.6	921.25	459.3	178.04	932.78	72.658	135.67	1090.5	433.87	161.55	1087.2	97.601	25.281	990.73	263.45	206.94	704.84	474.64	270.46	634.68	436.02	204.66	615.05	460.54	269.13	723.6	450.24	194.96	519.81	449.46	214.57	496.08	320.08	-23.649	417.92	424.18	-34.345	327.35	421.89	-81.112	369.73	404	23.891	375.95	441.45	-127.26	270.27	399.61	-94.269	283.54	315.21	-205.68	293.51	335.5	-217.68	267.48	301.82	-225.89	263.83	366.63	-133.77	127.74	416.77	-84.958	125.52	304.97	-32.229	97.133	355.51	221.46	697.07	86.253	310.7	638.83	115.54	245.92	606.83	106.14	294.24	726.23	95.214	276.16	521.52	116.04	220.08	318.32	120.28	289.41	263.04	127.03	220.66	247.22	140.22	284.81	332.54	112.63	255.58	109.86	152.32	292.42	131.58	236.54	202.15	65.769	210.6	217.48	42.764	243.38	203.62	37.036	183.28	382.22	40	119.48	411.39	58.679	235.25	470	70.944	177.92	161.8	1565.7	254.7	44.256	1293.8	263.15
337	1.4	309.55	1256	266.3	223.56	1520.9	412.93	206.73	1526.9	83.245	218.43	1828.5	224.98	231.04	1004.5	404.35	257	1014.8	155.03	39.878	1024.9	298.92	49.476	1027.9	207.54	144.48	922.1	459.22	181.94	933.31	72.403	140.85	1091.4	433.52	165.93	1087.9	97.234	30.089	991.44	263.62	215.47	706.27	474.32	279.53	636.89	435.19	214.16	616.46	460.22	277.14	725.81	449.38	205.54	521.1	449	224.78	497.75	319.53	-12.691	418.35	423.57	-22.908	327.75	421.28	-69.906	369.86	403.41	35.072	376.61	440.77	-115.49	270.31	398.88	-82.532	283.75	314.4	-194.36	292.6	334.64	-206.08	266.26	301.12	-214.19	262.87	365.97	-120.38	128.22	416.73	-71.806	125.85	304.84	-18.645	98.237	355.42	224.31	697.4	86.047	313.33	638.68	115.12	248.36	607.02	105.94	297.27	726.17	94.775	278.06	521.52	115.8	221.06	318.58	120.33	290.15	262.99	126.91	221.36	247.49	140.29	285.86	332.48	112.5	255.75	109.97	152.36	292.69	131.61	236.55	202.08	65.875	210.64	217.49	42.799	243.39	203.64	37.121	183.28	382.26	39.91	119.46	411.46	58.541	235.26	470.08	70.694	177.93	167.01	1566.4	254.29	49.204	1294.7	262.56
338	1.4042	314.46	1256.6	265.91	228.67	1521.6	412.55	212.06	1527.7	82.853	223.86	1829.2	224.62	236.16	1005.5	403.65	261.43	1015.5	154.3	44.711	1025.7	299.07	54.076	1028.7	207.66	150.33	922.97	459.15	185.83	933.83	72.163	146.03	1092.4	433.18	170.29	1088.6	96.883	34.886	992.18	263.81	223.91	707.74	474	288.51	639.15	434.38	223.57	617.92	459.89	285.06	728.06	448.54	216.03	522.43	448.51	234.93	499.46	318.96	-1.7253	418.59	422.9	-11.372	327.95	420.64	-58.632	369.74	402.77	46.295	377.15	440.07	-103.56	270.06	398.13	-70.626	283.66	313.58	-182.84	291.33	333.7	-194.25	264.65	300.36	-202.29	261.55	365.24	-106.75	128.44	416.74	-58.361	125.89	304.79	-4.7815	99.113	355.44	227.11	697.73	85.848	315.89	638.52	114.7	250.74	607.21	105.75	300.26	726.09	94.337	279.9	521.53	115.56	222.02	318.82	120.35	290.87	262.94	126.78	222.04	247.75	140.32	286.87	332.42	112.35	255.91	110.08	152.39	292.96	131.63	236.55	202.01	65.98	210.68	217.49	42.838	243.39	203.66	37.205	183.28	382.29	39.814	119.44	411.53	58.415	235.26	470.16	70.457	177.92	172.2	1567.2	253.88	54.143	1295.5	262.01
